# AST/ASF file generated using VICON BodyLanguage
# -----------------------------------------------
:version 1.10
:name VICON
:units
  mass 1.0
  length 0.45
  angle deg
:documentation
   .ast/.asf automatically generated from VICON data using
   VICON BodyBuilder and BodyLanguage model FoxedUp or BRILLIANT.MOD
:root
   order TX TY TZ RX RY RZ
   axis XYZ
   position 0 0 0  
   orientation 0 0 0 
:bonedata
  begin
     id 1 
     name lhipjoint
     direction 0.603808 -0.713975 0.35448 
     length 2.2025 
     axis 0 0 0  XYZ
  end
  begin
     id 2 
     name lfemur
     direction 0.34202 -0.939693 0  
     length 6.55877  
     axis 0 0 20  XYZ
    dof rx ry rz
    limits (-160.0 20.0)
           (-70.0 70.0)
           (-60.0 70.0)
  end
  begin
     id 3 
     name ltibia
     direction 0.34202 -0.939693 0   
     length 6.80302   
     axis 0 0 20   XYZ
    dof rx
    limits (-10.0 170.0)
  end
  begin
     id 4 
     name lfoot
     direction 0.091848 -0.25235 0.963267   
     length 2.03446   
     axis -90 7.62852e-016 20   XYZ
    dof rx rz
    limits (-45.0 90.0)
           (-70.0 20.0)
  end
  begin
     id 5 
     name ltoes
     direction 1.53608e-011 -4.21925e-011 1   
     length 1.02033   
     axis -90 7.62852e-016 20   XYZ
    dof rx
    limits (-90.0 20.0)
  end
  begin
     id 6 
     name rhipjoint
     direction -0.587285 -0.724947 0.359928   
     length 2.16916  
     axis 0 0 0  XYZ 
  end
  begin
     id 7 
     name rfemur
     direction -0.34202 -0.939693 0   
     length 6.43173   
     axis 0 0 -20   XYZ
    dof rx ry rz
    limits (-160.0 20.0)
           (-70.0 70.0)
           (-70.0 60.0)
  end
  begin
     id 8 
     name rtibia
     direction -0.34202 -0.939693 0   
     length 6.70662   
     axis 0 0 -20   XYZ
    dof rx
    limits (-10.0 170.0)
 end
 begin
     id 9 
     name rfoot
     direction -0.11854 -0.325686 0.938018   
     length 2.0773  
     axis -90 -7.62852e-016 -20   XYZ
    dof rx rz
    limits (-45.0 90.0)
           (-20.0 70.0)
  end
  begin
     id 10 
     name rtoes
     direction -1.53547e-011 -4.21838e-011 1   
     length 1.03267   
     axis -90 -7.62852e-016 -20   XYZ
    dof rx
    limits (-90.0 20.0)
  end
  begin
     id 11 
     name lowerback
     direction -0.0286554 0.999539 0.0100613   
     length 2.08751   
     axis 0 0 0   XYZ
    dof rx ry rz
    limits (-20.0 45.0)
           (-30.0 30.0)
           (-30.0 30.0)
  end
  begin
     id 12 
     name upperback
     direction 0.0227093 0.999705 -0.00860929   
     length 2.08517   
     axis 0 0 0   XYZ
    dof rx ry rz
    limits (-20.0 45.0)
           (-30.0 30.0)
           (-30.0 30.0)
  end
  begin
     id 13 
     name thorax
     direction 0.0351627 0.999285 -0.013892   
     length 2.08412   
     axis 0 0 0   XYZ
    dof rx ry rz
    limits (-20.0 45.0)
           (-30.0 30.0)
           (-30.0 30.0)
  end
  begin
     id 14 
     name lowerneck
     direction -0.0696283 0.997344 0.0213922   
     length 1.44164   
     axis 0 0 0   XYZ
    dof rx ry rz
    limits (-20.0 45.0)
           (-30.0 30.0)
           (-30.0 30.0)
  end
  begin
     id 15 
     name upperneck
     direction 0.0531 0.990412 -0.127531   
     length 1.45022   
     axis 0 0 0   XYZ
    dof rx ry rz
    limits (-20.0 45.0)
           (-30.0 30.0)
           (-30.0 30.0)
  end
  begin
     id 16
     name head
     direction 0.0188154 0.998548 -0.0504727  
     length 1.45845  
     axis 0 0 0   XYZ
    dof rx ry rz
    limits (-20.0 45.0)
           (-30.0 30.0)
           (-30.0 30.0)
  end
  begin
     id 17 
     name lclavicle
     direction 0.961559 0.260051 0.088188  
     length 2.86057  
     axis 0 0 0   XYZ
    dof ry rz
    limits (-20.0 10.0)
           (0.0 20.0)
  end
  begin
     id 18 
     name lhumerus
     direction 1 -4.48959e-011 2.88185e-027   
     length 4.36901   
     axis 180 -30 -90   XYZ
    dof rx ry rz
    limits (-60.0 90.0)
           (-90.0 90.0)
           (-90.0 90.0)
  end
  begin
     id 19
     name lradius
     direction 1 -4.48965e-011 -3.92618e-028   
     length 3.21737   
     axis 180 -30 -90   XYZ
    dof rx
    limits (-10.0 170.0)
  end
  begin
     id 20
     name lwrist
     direction 1 -4.49037e-011 2.57246e-027   
     length 1.60869   
     axis -1.61769e-015 90 90   XYZ
    dof ry
    limits (-180.0 0.0)
 end
  begin
     id 21 
     name lhand
     direction 1 -4.48807e-011 5.12958e-027   
     length 0.564313   
     axis -3.27988e-015 90 90   XYZ
    dof rx rz
    limits (-90.0 90.0)
           (-45.0 45.0)
  end
  begin
     id 22 
     name lfingers
     direction 1 -4.48879e-011 1.02687e-026   
     length 0.454963   
     axis -6.5598e-015 90 90   XYZ
    dof rx
    limits (0.0 90.0)
  end
  begin
     id 23
     name lthumb
     direction 0.707107 -6.3475e-011 0.707107   
     length 0.653239   
     axis -90 45 2.19363e-014   XYZ
    dof rx rz
    limits (-45.0 45.0)
           (-45.0 45.0)
  end
  begin
     id 24 
     name rclavicle
     direction -0.954677 0.253915 0.155304   
     length 3.11497  
     axis 0 0 0   XYZ 
    dof ry rz
    limits (-10.0 20.0)
           (-20.0 0.0)
  end
  begin
     id 25 
     name rhumerus
     direction -1 -4.48958e-011 -8.20169e-028  
     length 4.34118   
     axis 180 30 90   XYZ
    dof rx ry rz
    limits (-90.0 60.0)
           (-90.0 90.0)
           (-90.0 90.0)
  end
  begin
     id 26 
     name rradius
     direction -1 -4.48978e-011 1.5676e-027   
     length 3.09531   
     axis 180 30 90   XYZ
    dof rx
    limits (-10.0 170.0)
  end
  begin
     id 27 
     name rwrist
     direction -1 -4.49001e-011 2.57123e-027   
     length 1.54765   
     axis -1.61769e-015 -90 -90   XYZ
    dof ry
    limits (-180.0 0.0)
  end
  begin
     id 28
     name rhand
     direction -1 -4.48847e-011 5.13225e-027   
     length 0.597446   
     axis -3.27988e-015 -90 -90   XYZ
    dof rx rz
    limits (-90.0 90.0)
           (-45.0 45.0)
  end
  begin
     id 29
     name rfingers
     direction -1 -4.49094e-011 1.02974e-026   
     length 0.481677   
     axis -6.5598e-015 -90 -90   XYZ
    dof rx
    limits (0.0 90.0)
  end
  begin
     id 30
     name rthumb
     direction -0.707107 -6.34859e-011 0.707107   
     length 0.691594   
     axis -90 -45 -2.19363e-014   XYZ
    dof rx rz
    limits (-45.0 45.0)
           (-45.0 45.0)
  end
:hierarchy
  begin
    root lhipjoint rhipjoint lowerback
    lhipjoint lfemur
    lfemur ltibia
    ltibia lfoot
    lfoot ltoes
    rhipjoint rfemur
    rfemur rtibia
    rtibia rfoot
    rfoot rtoes
    lowerback upperback
    upperback thorax
    thorax lowerneck lclavicle rclavicle
    lowerneck upperneck
    upperneck head
    lclavicle lhumerus
    lhumerus lradius
    lradius lwrist
    lwrist lhand lthumb
    lhand lfingers
    rclavicle rhumerus
    rhumerus rradius
    rradius rwrist
    rwrist rhand rthumb
    rhand rfingers
  end

#!OML:ASF I:\Acrobat_Osman\acrobat\cartwheel_test 2\Patient 1\Session 1\acrobat.ASF
:FULLY-SPECIFIED
:DEGREES
1204
root 6.37641 15.5811 -12.0322 6.77553 -2.16253 1.10816
lowerback 3.787 -2.08818 -6.38251
upperback 2.63097 -2.97796 3.07505
thorax 1.09995 -1.62315 6.86753
lowerneck -5.71215 -11.1264 -11.2261
upperneck -3.21302 -14.2889 14.0995
head 1.83339 -6.96583 5.3552
rclavicle -1.8487e-014 2.46493e-014
rhumerus -16.3575 23.5251 -85.614
rradius 84.7781
rwrist -9.25679
rhand -19.8675 36.3203
rfingers 7.12502
rthumb 6.46775 6.43905
lclavicle -1.8487e-014 2.46493e-014
lhumerus -4.55235 -41.0367 88.6412
lradius 92.285
lwrist 33.0744
lhand -8.22583 41.9062
lfingers 7.12502
lthumb 17.6915 791.121
rfemur -23.735 -5.07572 18.0179
rtibia 57.9033
rfoot -13.6379 -4.802
rtoes -3.68704
lfemur -199.362 174.995 -208.902
ltibia 34.8512
lfoot -20.2326 4.62644
ltoes 1.90843
1205
root 6.39303 15.5971 -12.0365 6.68769 -2.82663 1.02612
lowerback 3.81558 -2.17109 -6.32088
upperback 2.7893 -3.08742 3.07268
thorax 1.26336 -1.68866 6.82813
lowerneck -5.50324 -11.173 -11.2213
upperneck -3.25702 -14.3729 14.2466
head 1.80986 -7.01611 5.40312
rclavicle 6.34123e-014 -1.86858e-014
rhumerus -17.2644 22.1981 -84.2454
rradius 84.5857
rwrist -9.12111
rhand -20.9431 35.449
rfingers 7.12502
rthumb 5.42928 5.53853
lclavicle 6.34123e-014 -1.86858e-014
lhumerus -6.52961 -41.1266 90.0054
lradius 92.6974
lwrist 31.8206
lhand -7.87456 42.0027
lfingers 7.12502
lthumb 18.0295 791.187
rfemur -23.6166 -5.26586 17.5514
rtibia 60.6131
rfoot -9.8483 -4.70716
rtoes -0.522825
lfemur -199.094 174.466 -208.971
ltibia 34.348
lfoot -19.8795 5.02709
ltoes 1.40489
1206
root 6.41026 15.6144 -12.034 6.49424 -3.71194 0.876849
lowerback 3.80289 -2.23521 -6.24269
upperback 2.99443 -3.16972 3.12573
thorax 1.49648 -1.74516 6.83441
lowerneck -5.31755 -11.1962 -11.4253
upperneck -3.24689 -14.4162 14.4083
head 1.81709 -7.04239 5.4868
rclavicle 1.19271e-015 -2.74323e-014
rhumerus -18.146 20.3498 -82.6198
rradius 83.6864
rwrist -8.62389
rhand -21.8362 35.1289
rfingers 7.12502
rthumb 4.56694 5.19813
lclavicle 1.19271e-015 -2.74323e-014
lhumerus -8.26149 -41.0064 91.3251
lradius 92.7516
lwrist 31.0812
lhand -8.26495 42.5027
lfingers 7.12502
lthumb 17.6539 791.721
rfemur -23.3202 -5.19017 17.0735
rtibia 62.9138
rfoot -5.4031 -5.38599
rtoes 1.01851
lfemur -198.741 173.894 -208.965
ltibia 33.9643
lfoot -19.5646 5.62342
ltoes 0.746333
1207
root 6.34443 15.6157 -12.0381 4.88297 -8.14212 0.485493
lowerback 4.63032 -0.966203 -7.60888
upperback 3.82767 -1.56275 3.25878
thorax 1.6939 -1.00831 7.75624
lowerneck -5.10694 -11.2017 -11.5331
upperneck -3.42275 -14.4291 14.6285
head 1.76049 -7.05869 5.58354
rclavicle -4.57205e-015 -1.82882e-014
rhumerus -18.8749 18.1439 -80.713
rradius 82.5595
rwrist -8.04671
rhand -22.4617 34.951
rfingers 7.12502
rthumb 3.96291 5.00809
lclavicle -4.57205e-015 -1.82882e-014
lhumerus -9.55463 -41.0659 92.2248
lradius 92.672
lwrist 31.2572
lhand -9.72423 42.5631
lfingers 7.12502
lthumb 16.2492 791.902
rfemur -21.7921 -1.3422 16.8742
rtibia 64.4838
rfoot -0.752451 -7.32074
rtoes 2.62628
lfemur -196.664 170.624 -208.312
ltibia 33.6352
lfoot -20.2795 6.17372
ltoes 5.37165
1208
root 6.48945 15.6239 -12.0411 7.20974 -6.95228 0.245587
lowerback 2.61208 -2.05273 -5.15199
upperback 3.22043 -2.84943 3.1039
thorax 2.28237 -1.59462 6.12914
lowerneck -5.13785 -11.2047 -11.5021
upperneck -3.40153 -14.4348 14.6184
head 1.76927 -7.06145 5.57307
rclavicle -9.93923e-017 1.15295e-014
rhumerus -19.642 15.9985 -78.5
rradius 81.4008
rwrist -7.23906
rhand -23.2574 34.4573
rfingers 7.12502
rthumb 3.19454 4.50147
lclavicle -9.93923e-017 1.15295e-014
lhumerus -10.9976 -42.2247 93.2888
lradius 92.972
lwrist 35.4451
lhand -18.6615 40.9374
lfingers 7.12502
lthumb 7.63187 790.78
rfemur -24.3004 -3.7646 16.0595
rtibia 65.4625
rfoot 4.21404 -8.27048
rtoes 6.07239
lfemur -199.442 172.995 -209.07
ltibia 33.4319
lfoot -18.9999 8.09946
ltoes 0.512936
1209
root 6.48282 15.6393 -12.0057 6.44974 -6.89979 0.128281
lowerback 2.98536 -2.52356 -5.32138
upperback 3.50106 -3.50178 3.33578
thorax 2.48958 -1.94632 6.47622
lowerneck -5.32982 -11.1572 -11.391
upperneck -3.15888 -14.3735 14.3331
head 1.8305 -7.02292 5.46005
rclavicle 4.17448e-015 4.37326e-015
rhumerus -20.7468 14.0212 -76.0556
rradius 80.3451
rwrist -6.54407
rhand -23.9971 34.0655
rfingers 7.12502
rthumb 2.48016 4.10016
lclavicle 4.17448e-015 4.37326e-015
lhumerus -11.6894 -41.6793 93.9874
lradius 92.6085
lwrist 34.1639
lhand -17.4073 43.2719
lfingers 7.12502
lthumb 8.84228 793.067
rfemur -22.5098 -3.78604 15.748
rtibia 65.2913
rfoot 7.53094 -9.58136
rtoes 7.61504
lfemur -198.245 172.33 -208.729
ltibia 33.258
lfoot -19.2436 7.3989
ltoes 1.7565
1210
root 6.49452 15.6468 -11.9814 6.26258 -7.46012 -0.10703
lowerback 3.08572 -2.90318 -5.19878
upperback 3.44513 -4.01683 3.56092
thorax 2.46307 -2.20451 6.64654
lowerneck -5.25005 -11.0088 -11.1647
upperneck -3.0634 -14.1891 13.8619
head 1.76632 -6.93785 5.30602
rclavicle 6.20208e-014 -3.18055e-015
rhumerus -22.3935 12.3145 -73.4776
rradius 79.7427
rwrist -6.16279
rhand -24.32 33.9155
rfingers 7.12502
rthumb 2.16828 3.94681
lclavicle 6.20208e-014 -3.18055e-015
lhumerus -12.2964 -41.1776 94.5615
lradius 92.1106
lwrist 33.1059
lhand -15.2064 44.223
lfingers 7.12502
lthumb 10.9656 793.917
rfemur -21.708 -3.25291 15.4405
rtibia 64.5905
rfoot 9.38904 -9.29909
rtoes 5.37687
lfemur -197.813 171.645 -208.493
ltibia 33.1054
lfoot -19.3275 7.19935
ltoes 3.10137
1211
root 6.52132 15.6465 -11.9643 6.16728 -8.48419 -0.259494
lowerback 3.08844 -3.21178 -4.98329
upperback 3.39687 -4.43048 3.72416
thorax 2.47208 -2.40965 6.69344
lowerneck -5.21129 -10.8184 -10.944
upperneck -2.98471 -13.942 13.3631
head 1.6962 -6.82048 5.14786
rclavicle -1.31198e-014 1.78906e-014
rhumerus -23.9389 10.5693 -70.7366
rradius 79.4115
rwrist -5.67114
rhand -24.2119 33.6254
rfingers 7.12502
rthumb 2.27267 3.65771
lclavicle -1.31198e-014 1.78906e-014
lhumerus -12.3191 -40.825 94.6642
lradius 91.7632
lwrist 32.2784
lhand -11.6099 45.6872
lfingers 7.12502
lthumb 14.4329 795.165
rfemur -21.3407 -2.52787 14.9031
rtibia 63.6674
rfoot 10.2232 -7.44073
rtoes 1.91894
lfemur -197.53 171.04 -208.492
ltibia 32.92
lfoot -19.3948 7.62765
ltoes 3.90405
1212
root 6.55303 15.6481 -11.9488 5.99152 -9.62879 -0.397778
lowerback 3.16569 -3.50668 -4.70829
upperback 3.43671 -4.8281 3.88381
thorax 2.52261 -2.60928 6.70455
lowerneck -5.49242 -10.6369 -10.787
upperneck -2.76684 -13.6876 12.9275
head 1.729 -6.68606 4.9962
rclavicle -4.1546e-014 2.22639e-014
rhumerus -25.2078 8.68258 -67.8952
rradius 79.1709
rwrist -5.27355
rhand -24.2995 33.3761
rfingers 7.12502
rthumb 2.18809 3.40756
lclavicle -4.1546e-014 2.22639e-014
lhumerus -11.6933 -40.7848 94.3317
lradius 91.3082
lwrist 31.0519
lhand -8.45844 44.5853
lfingers 7.12502
lthumb 17.4677 793.82
rfemur -21.097 -1.93277 14.3539
rtibia 62.9736
rfoot 11.2629 -5.42779
rtoes -0.588794
lfemur -197.185 170.715 -208.519
ltibia 32.7822
lfoot -19.4252 8.50167
ltoes 3.88679
1213
root 6.59576 15.6479 -11.9387 6.05295 -11.3347 -0.601041
lowerback 3.12243 -3.66441 -4.27087
upperback 3.41607 -5.03494 4.02367
thorax 2.52959 -2.70504 6.59883
lowerneck -5.89337 -10.4382 -10.5512
upperneck -2.60089 -13.4003 12.477
head 1.75735 -6.53391 4.82656
rclavicle -3.24019e-014 -3.26007e-014
rhumerus -26.527 6.96135 -65.0885
rradius 79.1525
rwrist -5.71742
rhand -24.6492 33.4568
rfingers 7.12502
rthumb 1.85037 3.48504
lclavicle -3.24019e-014 -3.26007e-014
lhumerus -10.8742 -41.7189 93.8523
lradius 91.6046
lwrist 31.4412
lhand -10.6316 44.1446
lfingers 7.12502
lthumb 15.3754 793.553
rfemur -21.5535 -1.05924 13.8184
rtibia 62.6936
rfoot 12.6405 -3.80573
rtoes -1.88092
lfemur -197.182 170.448 -208.616
ltibia 32.7172
lfoot -19.4753 9.79263
ltoes 4.23169
1214
root 6.61575 15.6546 -11.9143 5.76227 -12.6366 -0.661362
lowerback 3.12616 -4.00274 -4.14912
upperback 3.54512 -5.4924 4.11516
thorax 2.72839 -2.94412 6.6144
lowerneck -6.28563 -10.1855 -10.1122
upperneck -2.46356 -13.0531 11.9657
head 1.75398 -6.35589 4.61503
rclavicle -7.7526e-015 -7.95139e-016
rhumerus -27.9779 5.16342 -62.468
rradius 79.4127
rwrist -6.44492
rhand -24.6805 33.4015
rfingers 7.12502
rthumb 1.82013 3.42947
lclavicle -7.7526e-015 -7.95139e-016
lhumerus -9.62141 -42.9158 92.8925
lradius 91.8087
lwrist 31.2152
lhand -11.2651 43.3418
lfingers 7.12502
lthumb 14.7651 792.796
rfemur -21.5325 -0.257738 13.3517
rtibia 62.5472
rfoot 13.6579 -2.4979
rtoes -1.95186
lfemur -196.658 170.043 -208.609
ltibia 32.6462
lfoot -19.8588 10.4445
ltoes 5.36873
1215
root 6.65924 15.6557 -11.9023 6.07635 -15.1526 -0.926337
lowerback 2.7434 -4.07838 -3.69925
upperback 3.48481 -5.58343 4.20129
thorax 2.85603 -2.98144 6.42117
lowerneck -6.50071 -9.83227 -9.54028
upperneck -2.36131 -12.5917 11.3056
head 1.68477 -6.1302 4.35793
rclavicle 4.11484e-014 -9.54166e-015
rhumerus -29.4855 3.38062 -59.9604
rradius 80.0151
rwrist -6.96982
rhand -24.6845 32.9674
rfingers 7.12502
rthumb 1.81632 2.99543
lclavicle 4.11484e-014 -9.54166e-015
lhumerus -8.33786 -44.1649 91.8326
lradius 92.0653
lwrist 30.4776
lhand -11.0329 42.6981
lfingers 7.12502
lthumb 14.9888 792.136
rfemur -22.8462 1.45489 12.7741
rtibia 62.5468
rfoot 15.3888 -0.696208
rtoes -0.369849
lfemur -196.972 169.59 -208.756
ltibia 32.6372
lfoot -20.0219 12.1798
ltoes 6.27362
1216
root 6.69133 15.6579 -11.8775 6.13936 -17.2419 -1.14408
lowerback 2.51156 -4.41468 -3.46793
upperback 3.43927 -6.03625 4.4182
thorax 3.00336 -3.21133 6.49124
lowerneck -6.64282 -9.35655 -9.02844
upperneck -2.17913 -11.9707 10.4939
head 1.61152 -5.82772 4.07607
rclavicle 3.51849e-014 -3.89618e-014
rhumerus -31.0113 2.06971 -57.3695
rradius 80.9482
rwrist -7.61825
rhand -24.5299 32.5599
rfingers 7.12502
rthumb 1.96558 2.58921
lclavicle 3.51849e-014 -3.89618e-014
lhumerus -7.1468 -45.3445 90.9787
lradius 92.5167
lwrist 29.9623
lhand -11.3887 42.413
lfingers 7.12502
lthumb 14.646 791.876
rfemur -23.6595 2.97269 12.2261
rtibia 62.4417
rfoot 17.1097 1.02382
rtoes 1.817
lfemur -196.878 169.33 -208.789
ltibia 32.5823
lfoot -20.1396 13.6786
ltoes 6.59365
1217
root 6.71551 15.6597 -11.8411 5.92655 -19.0537 -1.27546
lowerback 2.4501 -4.87812 -3.42097
upperback 3.42476 -6.66876 4.70458
thorax 3.14533 -3.54044 6.74368
lowerneck -6.92878 -8.7782 -8.60542
upperneck -1.71348 -11.208 9.53793
head 1.63705 -5.44988 3.75796
rclavicle 1.80894e-014 -2.70347e-014
rhumerus -32.5456 1.09517 -54.5819
rradius 81.7512
rwrist -8.28515
rhand -24.1179 32.6807
rfingers 7.12502
rthumb 2.36352 2.71402
lclavicle 1.80894e-014 -2.70347e-014
lhumerus -5.71137 -46.5196 90.1826
lradius 93.0706
lwrist 30.2751
lhand -12.0762 42.3238
lfingers 7.12502
lthumb 13.9835 791.834
rfemur -24.0067 4.36129 11.6627
rtibia 62.2746
rfoot 18.6686 2.52309
rtoes 0.927151
lfemur -196.387 169.141 -208.797
ltibia 32.4837
lfoot -20.2731 15.0299
ltoes 6.20937
